<mxfile host="65bd71144e">
    <diagram id="hdBZtnae9xkrTedrDY7W" name="Page-1">
        <mxGraphModel dx="1260" dy="1347" grid="1" gridSize="10" guides="1" tooltips="1" connect="1" arrows="1" fold="1" page="1" pageScale="1" pageWidth="850" pageHeight="1100" math="0" shadow="0">
            <root>
                <mxCell id="0"/>
                <mxCell id="1" parent="0"/>
                <mxCell id="2" value="" style="rounded=0;whiteSpace=wrap;html=1;" vertex="1" parent="1">
                    <mxGeometry x="50" y="40" width="700" height="730" as="geometry"/>
                </mxCell>
                <mxCell id="3" value="&lt;font size=&quot;3&quot;&gt;BLOG TITLE&amp;nbsp; LINKS HOME CREAT NEW POST&lt;br&gt;IF USER LOGGED IN ALSO SHOW WELCOME (USERNAME)&lt;br&gt;&lt;/font&gt;" style="rounded=0;whiteSpace=wrap;html=1;" vertex="1" parent="1">
                    <mxGeometry x="50" y="40" width="700" height="60" as="geometry"/>
                </mxCell>
                <mxCell id="4" value="BLOG POSTS" style="rounded=1;whiteSpace=wrap;html=1;fontSize=36;" vertex="1" parent="1">
                    <mxGeometry x="80" y="140" width="630" height="540" as="geometry"/>
                </mxCell>
                <mxCell id="5" value="Footer" style="rounded=1;whiteSpace=wrap;html=1;fontSize=36;" vertex="1" parent="1">
                    <mxGeometry x="50" y="710" width="700" height="60" as="geometry"/>
                </mxCell>
            </root>
        </mxGraphModel>
    </diagram>
</mxfile>